<?xml version="1.0" encoding="UTF-8"?>
<svg version="1.1" xmlns="http://www.w3.org/2000/svg" width="346" height="346">
<path d="M0 0 C3.71346388 0.0107234 7.42644315 0.00002785 11.13989258 -0.01269531 C55.15996272 -0.03962669 106.71888601 3.05444775 140.60668945 34.96386719 C149.79545179 44.66403282 156.47265325 55.02015292 161.7824707 67.26074219 C162.05929687 67.89173828 162.33612305 68.52273437 162.62133789 69.17285156 C174.07195711 95.83110861 176.88500895 126.49558148 176.9855957 155.22167969 C176.99129578 156.52811432 176.99699585 157.83454895 177.00286865 159.18057251 C177.01328932 161.93874487 177.01918656 164.69688895 177.02270508 167.45507812 C177.02703776 170.21009951 177.04074162 172.96479851 177.0637207 175.71972656 C177.42450595 219.93789326 175.77469152 273.10055037 143.7824707 307.26074219 C143.16114258 307.96070313 142.53981445 308.66066406 141.8996582 309.38183594 C114.2492306 339.05687644 67.37333449 344.45814596 29.24316406 346.05175781 C-87.1768892 349.81041556 -87.1768892 349.81041556 -128.4050293 313.88574219 C-130.02670645 312.3625055 -131.63126871 310.82082685 -133.2175293 309.26074219 C-133.97807617 308.51308594 -134.73862305 307.76542969 -135.5222168 306.99511719 C-145.81051175 296.24402696 -152.42666062 283.23822504 -157.2175293 269.26074219 C-157.54962402 268.2992627 -157.54962402 268.2992627 -157.88842773 267.31835938 C-177.64116687 208.75627375 -178.75002516 117.5078037 -151.09594727 61.6237793 C-137.81933838 36.02709782 -116.52439752 19.52539119 -89.37768555 10.63574219 C-80.18137673 7.77754916 -70.89231855 5.64753442 -61.4050293 4.01074219 C-60.54329102 3.85968018 -59.68155273 3.70861816 -58.79370117 3.55297852 C-39.32446427 0.45544109 -19.67430009 -0.06729353 0 0 Z " fill="#FAE510" transform="translate(169.217529296875,-0.2607421875)"/>
<path d="M0 0 C0.79083984 0.00974854 1.58167969 0.01949707 2.39648438 0.02954102 C12.76179198 0.34360898 19.29076863 3.71477089 26.80078125 10.87109375 C30.5585808 15.02046233 33.37244499 19.5821974 36.125 24.4375 C36.77662109 25.55318359 36.77662109 25.55318359 37.44140625 26.69140625 C38.35300017 28.26366754 39.24238368 29.84879063 40.125 31.4375 C41.115 31.4375 42.105 31.4375 43.125 31.4375 C43.40472656 30.77105469 43.68445313 30.10460937 43.97265625 29.41796875 C49.3719374 17.00483042 54.89194455 6.79167976 67.8515625 1.27734375 C76.7827302 -1.01406562 89.20006168 -1.41919537 97.35546875 3.26171875 C97.93941406 3.64972656 98.52335938 4.03773437 99.125 4.4375 C99.71925781 4.75332031 100.31351563 5.06914063 100.92578125 5.39453125 C109.95188843 10.73814681 114.90608154 21.86545299 118.125 31.4375 C120.03197493 31.40002875 120.03197493 31.40002875 122.125 30.4375 C123.94580229 27.71996835 123.94580229 27.71996835 125.5 24.375 C130.8758151 13.88106533 136.67339172 6.01363891 147.89453125 1.265625 C159.56662498 -1.72649576 171.87303655 -0.12897799 182.3203125 5.65234375 C190.25703411 10.85798815 195.02977299 19.33512227 197.125 28.4375 C199.33991685 51.56535267 186.82984326 70.38284018 174.73681641 88.95361328 C173.1047645 91.46868389 171.4939286 93.99633889 169.88671875 96.52734375 C143.45038981 137.98071206 143.45038981 137.98071206 127.19140625 143.0390625 C119.18372124 144.58307738 112.06493481 143.75255172 105.125 139.4375 C91.68565109 129.80511494 83.34041649 114.00298884 74.89453125 100.15234375 C74.35924805 99.28279053 73.82396484 98.4132373 73.27246094 97.51733398 C72.23229331 95.82425769 71.20260273 94.12469056 70.18457031 92.41821289 C69.4763916 91.26760376 69.4763916 91.26760376 68.75390625 90.09375 C68.34213135 89.41119141 67.93035645 88.72863281 67.50610352 88.02539062 C65.82293577 86.09020889 64.62153483 85.80671755 62.125 85.4375 C62.24617188 86.04335937 62.36734375 86.64921875 62.4921875 87.2734375 C62.8475068 89.05003402 63.19873187 90.82745206 63.546875 92.60546875 C63.9017262 94.34376011 64.2815511 96.07745549 64.703125 97.80078125 C67.41007374 109.30531341 67.86040586 122.18641404 61.8359375 132.68359375 C58.15802766 138.04311477 54.2596822 140.83697786 48.1875 143.1875 C39.58621883 144.23007954 32.32928563 142.94753587 25.1875 137.875 C11.0781911 126.44255603 1.34568283 111.6064087 -8.48583984 96.5625 C-10.03376899 94.19463087 -11.58941864 91.8319069 -13.14453125 89.46875 C-15.93899827 85.2120386 -18.70777712 80.93964244 -21.45507812 76.65234375 C-22.64568507 74.79519345 -23.84522415 72.94377361 -25.046875 71.09375 C-33.88322636 56.86175046 -38.99730198 41.08889809 -35.171875 24.36328125 C-34.26906759 21.86525904 -33.23456071 19.7161407 -31.875 17.4375 C-31.45089844 16.72335938 -31.02679688 16.00921875 -30.58984375 15.2734375 C-23.59254223 4.86519512 -12.27476842 -0.16960638 0 0 Z " fill="#292627" transform="translate(92.875,109.5625)"/>
</svg>
