<?xml version="1.0" encoding="UTF-8"?>
<svg version="1.1" xmlns="http://www.w3.org/2000/svg" width="225" height="225">
<path d="M0 0 C74.25 0 148.5 0 225 0 C225 74.25 225 148.5 225 225 C150.75 225 76.5 225 0 225 C0 150.75 0 76.5 0 0 Z " fill="#122444" transform="translate(0,0)"/>
<path d="M0 0 C0.66 0 1.32 0 2 0 C2.55945313 1.093125 3.11890625 2.18625 3.6953125 3.3125 C9.01516717 13.61038039 14.65504865 23.672143 20.53686523 33.65893555 C25.45507657 42.02261352 30.22071351 50.46395649 34.92700195 58.94848633 C37.67457211 63.89129419 40.45522098 68.8034803 43.359375 73.65625 C43.87991455 74.53047607 44.4004541 75.40470215 44.93676758 76.30541992 C45.91031761 77.93180438 46.8939697 79.55220043 47.8894043 81.1652832 C48.31648682 81.88031006 48.74356934 82.59533691 49.18359375 83.33203125 C49.56056396 83.94796143 49.93753418 84.5638916 50.32592773 85.19848633 C51.1840846 87.49198127 50.66276155 88.69261829 50 91 C44.48242521 91.02467609 38.96488239 91.04284856 33.44726562 91.05493164 C31.56933025 91.05996763 29.6913988 91.06679671 27.81347656 91.07543945 C25.11782868 91.08753713 22.42223253 91.09323557 19.7265625 91.09765625 C18.88380768 91.10281754 18.04105286 91.10797882 17.17276001 91.11329651 C11.22774341 91.11387171 11.22774341 91.11387171 9 90 C8.03857422 88.41772461 8.03857422 88.41772461 7.0546875 86.40234375 C6.70019531 85.68369141 6.34570312 84.96503906 5.98046875 84.22460938 C5.61566406 83.46986328 5.25085938 82.71511719 4.875 81.9375 C4.31619141 80.79958008 4.31619141 80.79958008 3.74609375 79.63867188 C2.8253392 77.76174913 1.91197136 75.88120604 1 74 C-0.91160921 76.28741932 -2.06648428 78.17692535 -3.12329102 80.98925781 C-4.67484343 84.77229836 -6.03005124 87.16043923 -9 90 C-15.32735552 92.04638723 -22.40434455 91.11930823 -28.9375 90.75 C-30.7843325 90.68976136 -32.63135287 90.63501631 -34.47851562 90.5859375 C-38.99033315 90.45411353 -43.49310269 90.24740516 -48 90 C-49.05542356 85.82904726 -48.84601127 83.97499114 -46.65112305 80.19458008 C-46.27125244 79.57349365 -45.89138184 78.95240723 -45.5 78.3125 C-45.10272705 77.63533936 -44.7054541 76.95817871 -44.29614258 76.26049805 C-43.38852328 74.71346205 -42.47510107 73.16982165 -41.55712891 71.62890625 C-39.20475265 67.65738108 -36.91002288 63.65308143 -34.60864258 59.65185547 C-32.66789094 56.27841527 -30.72120763 52.9084544 -28.7734375 49.5390625 C-25.43789063 43.7638592 -22.11911779 37.97930791 -18.8125 32.1875 C-18.33731934 31.35549072 -17.86213867 30.52348145 -17.37255859 29.66625977 C-14.78604538 25.13524129 -12.2043027 20.60153294 -9.625 16.06640625 C-8.79391724 14.60714722 -8.79391724 14.60714722 -7.94604492 13.1184082 C-6.87711434 11.24142936 -5.80951507 9.36369155 -4.7434082 7.48510742 C-4.26734131 6.64955322 -3.79127441 5.81399902 -3.30078125 4.953125 C-2.66910034 3.84179199 -2.66910034 3.84179199 -2.0246582 2.70800781 C-1 1 -1 1 0 0 Z " fill="#2AA5F4" transform="translate(80,20)"/>
<path d="M0 0 C5.33845574 -0.12368107 10.67607624 -0.21437609 16.015625 -0.2746582 C17.83152799 -0.299789 19.64732996 -0.33389961 21.46289062 -0.37719727 C24.07447223 -0.43791511 26.68471594 -0.46622281 29.296875 -0.48828125 C30.10743347 -0.51408768 30.91799194 -0.5398941 31.75311279 -0.56648254 C35.70634741 -0.56844571 37.53701121 -0.44629448 40.4375 2.34960938 C42.08942462 5.15168651 43.72621587 7.93808902 45.25 10.8125 C46.03117187 12.27623047 46.03117187 12.27623047 46.828125 13.76953125 C47.21484375 14.50558594 47.6015625 15.24164063 48 16 C51.46445009 12.00255759 54.0720493 7.65897385 56.73046875 3.109375 C58 1 58 1 59 0 C61.8116338 -0.08861992 64.59858255 -0.11522355 67.41015625 -0.09765625 C68.25219101 -0.0962413 69.09422577 -0.09482635 69.96177673 -0.09336853 C72.66205335 -0.08775263 75.36224828 -0.07519748 78.0625 -0.0625 C79.88867068 -0.05748705 81.71484266 -0.05292379 83.54101562 -0.04882812 C88.02737542 -0.03777804 92.51367384 -0.02050279 97 0 C97.91257921 3.01059849 98.17254558 4.55521966 97.01879883 7.52929688 C96.24572388 8.86057617 96.24572388 8.86057617 95.45703125 10.21875 C94.8839624 11.22244629 94.31089355 12.22614258 93.72045898 13.26025391 C92.77601929 14.86392822 92.77601929 14.86392822 91.8125 16.5 C91.1719165 17.6142334 90.53133301 18.7284668 89.87133789 19.87646484 C88.55399169 22.16555968 87.23064025 24.45120885 85.90136719 26.73339844 C83.7052094 30.50645843 81.5409204 34.29688661 79.38110352 38.09082031 C77.92669476 40.64396811 76.46572478 43.19327627 75.00390625 45.7421875 C71.76687092 51.39605258 68.57214715 57.07351861 65.375 62.75 C60.02932956 72.23448619 54.56435998 81.64232916 49 91 C46.04015536 88.25208214 44.06381094 85.66677006 42.1875 82.09765625 C41.42010498 80.65555786 41.42010498 80.65555786 40.63720703 79.18432617 C40.09692871 78.15412354 39.55665039 77.1239209 39 76.0625 C37.83271551 73.8713365 36.66340763 71.68124985 35.4921875 69.4921875 C34.9053418 68.39487305 34.31849609 67.29755859 33.71386719 66.16699219 C31.25873809 61.63024936 28.70367103 57.15486149 26.125 52.6875 C20.7252869 43.3212075 15.46822894 33.87934147 10.25048828 24.41088867 C9.65478027 23.33299072 9.05907227 22.25509277 8.4453125 21.14453125 C7.58728027 19.58726318 7.58728027 19.58726318 6.71191406 17.99853516 C4.60701657 14.3116625 2.32284759 10.75478869 -0.03564453 7.2253418 C-1.24930167 4.42471274 -0.85072311 2.87744581 0 0 Z " fill="#F6F7F7" transform="translate(96,114)"/>
<path d="M0 0 C1.18414294 3.55242882 0.69535532 4.69830562 -0.4375 8.1875 C-0.72496094 9.08855469 -1.01242188 9.98960938 -1.30859375 10.91796875 C-1.53675781 11.60503906 -1.76492187 12.29210937 -2 13 C-1.67 13 -1.34 13 -1 13 C1.33333333 13 3.66666667 13 6 13 C6 13.66 6 14.32 6 15 C11.94 15 17.88 15 24 15 C24 14.34 24 13.68 24 13 C24.66 13 25.32 13 26 13 C26 13.99 26 14.98 26 16 C28.31 16.33 30.62 16.66 33 17 C32.34 18.32 31.68 19.64 31 21 C18.13 21 5.26 21 -8 21 C-9.125 15.375 -9.125 15.375 -7.12890625 12.01171875 C-6.71962891 11.30595703 -6.31035156 10.60019531 -5.88867188 9.87304688 C-5.45103516 9.15181641 -5.01339844 8.43058594 -4.5625 7.6875 C-4.12873047 6.94693359 -3.69496094 6.20636719 -3.24804688 5.44335938 C-2.17829429 3.62125332 -1.09083974 1.80956065 0 0 Z " fill="#2BA2F2" transform="translate(40,89)"/>
<path d="M0 0 C0.33 0.66 0.66 1.32 1 2 C1.66 2 2.32 2 3 2 C3.0825 2.94875 3.165 3.8975 3.25 4.875 C3.65074923 8.10461791 3.65074923 8.10461791 6.0625 9.375 C6.701875 9.58125 7.34125 9.7875 8 10 C8 11.98 8 13.96 8 16 C20.54 16.33 33.08 16.66 46 17 C45.505 15.02 45.505 15.02 45 13 C44.34 12.731875 43.68 12.46375 43 12.1875 C42.34 11.795625 41.68 11.40375 41 11 C40.25 7.375 40.25 7.375 40 4 C40.99 4 41.98 4 43 4 C44.03572896 5.74122549 45.0531252 7.49336595 46.0625 9.25 C46.63097656 10.22453125 47.19945312 11.1990625 47.78515625 12.203125 C49.11976196 15.27572208 48.96032821 15.95658596 48 19 C42.48242521 19.02467609 36.96488239 19.04284856 31.44726562 19.05493164 C29.56933025 19.05996763 27.6913988 19.06679671 25.81347656 19.07543945 C23.11782868 19.08753713 20.42223253 19.09323557 17.7265625 19.09765625 C16.88380768 19.10281754 16.04105286 19.10797882 15.17276001 19.11329651 C9.22774341 19.11387171 9.22774341 19.11387171 7 18 C5.71116697 15.74600015 4.52385675 13.51089932 3.375 11.1875 C3.05015625 10.55779297 2.7253125 9.92808594 2.390625 9.27929688 C0.68142751 5.85731115 0 3.90211321 0 0 Z " fill="#3E9AD8" transform="translate(82,92)"/>
<path d="M0 0 C0.33 0.66 0.66 1.32 1 2 C2.22106445 2.01458252 3.44212891 2.02916504 4.70019531 2.04418945 C9.23288172 2.10218565 13.76507204 2.17941857 18.29736328 2.26245117 C20.25854436 2.29569428 22.21982098 2.32372815 24.18115234 2.34643555 C27.00139047 2.37999281 29.82075365 2.43230899 32.640625 2.48828125 C33.95489471 2.49786613 33.95489471 2.49786613 35.29571533 2.50764465 C36.11626404 2.52743881 36.93681274 2.54723297 37.78222656 2.56762695 C38.86144379 2.58428154 38.86144379 2.58428154 39.96246338 2.60127258 C42 3 42 3 46 6 C27.19 6.495 27.19 6.495 8 7 C7.67 8.32 7.34 9.64 7 11 C6.34 11 5.68 11 5 11 C4.67 10.67 4.34 10.34 4 10 C3.01 10.495 3.01 10.495 2 11 C2.33 9.35 2.66 7.7 3 6 C1.68 5.01 0.36 4.02 -1 3 C-0.67 2.01 -0.34 1.02 0 0 Z " fill="#051333" transform="translate(88,108)"/>
<path d="M0 0 C0.721875 0.78375 1.44375 1.5675 2.1875 2.375 C6.33796697 6.24876918 9.44220384 6.88844077 15 8 C13.35 11.3 11.7 14.6 10 18 C9.01 18 8.02 18 7 18 C4.03 12.72 1.06 7.44 -2 2 C-1.34 1.34 -0.68 0.68 0 0 Z " fill="#E3E5E9" transform="translate(136,186)"/>
<path d="M0 0 C1.15477893 3.46433679 0.80148365 4.68112799 -0.1875 8.125 C-0.54908203 9.45917969 -0.54908203 9.45917969 -0.91796875 10.8203125 C-2 13 -2 13 -4.11328125 13.8046875 C-4.73589844 13.86914062 -5.35851563 13.93359375 -6 14 C-6.33 15.98 -6.66 17.96 -7 20 C3.23 20 13.46 20 24 20 C24 19.34 24 18.68 24 18 C26.97 17.67 29.94 17.34 33 17 C32.34 18.32 31.68 19.64 31 21 C18.13 21 5.26 21 -8 21 C-9.125 15.375 -9.125 15.375 -7.12890625 12.01171875 C-6.71962891 11.30595703 -6.31035156 10.60019531 -5.88867188 9.87304688 C-5.45103516 9.15181641 -5.01339844 8.43058594 -4.5625 7.6875 C-4.12873047 6.94693359 -3.69496094 6.20636719 -3.24804688 5.44335938 C-2.17829429 3.62125332 -1.09083974 1.80956065 0 0 Z " fill="#3F9EDC" transform="translate(40,89)"/>
<path d="M0 0 C1.65 1.32 3.3 2.64 5 4 C4.67 4.66 4.34 5.32 4 6 C4.61875 5.649375 5.2375 5.29875 5.875 4.9375 C6.57625 4.628125 7.2775 4.31875 8 4 C8.66 4.33 9.32 4.66 10 5 C9.814375 5.763125 9.62875 6.52625 9.4375 7.3125 C8.77180827 10.08967375 8.77180827 10.08967375 10 13 C9.5625 15.1875 9.5625 15.1875 9 17 C5.34572251 15.7819075 4.86868864 14.36175201 3.19921875 11.03320312 C2.88597656 10.38287109 2.57273437 9.73253906 2.25 9.0625 C1.92128906 8.41603516 1.59257813 7.76957031 1.25390625 7.10351562 C0.43264037 5.43499444 -0.29139996 3.71939715 -1 2 C-0.67 1.34 -0.34 0.68 0 0 Z " fill="#E4E7EC" transform="translate(102,126)"/>
<path d="M0 0 C0.66 0 1.32 0 2 0 C2.85637238 2.92593895 3.38673104 5.08174288 2.17578125 7.95703125 C1.17852152 9.67511732 0.09427085 11.34201387 -1 13 C-2.66611905 13.042721 -4.33382885 13.04063832 -6 13 C-7 12 -7 12 -7.0625 9.4375 C-7.041875 8.633125 -7.02125 7.82875 -7 7 C-6.195625 6.7525 -5.39125 6.505 -4.5625 6.25 C-1.83364774 5.28621485 -1.83364774 5.28621485 -1.25 2.9375 C-1.1675 2.298125 -1.085 1.65875 -1 1 C-0.67 0.67 -0.34 0.34 0 0 Z " fill="#0C2136" transform="translate(41,78)"/>
<path d="M0 0 C0.66 0 1.32 0 2 0 C3.65 3.63 5.3 7.26 7 11 C5.68 11 4.36 11 3 11 C2.34 8.69 1.68 6.38 1 4 C0.34 4 -0.32 4 -1 4 C-1.12375 4.78375 -1.2475 5.5675 -1.375 6.375 C-2 9 -2 9 -4 11 C-4.28875 11.99 -4.5775 12.98 -4.875 14 C-6 17 -6 17 -8.125 18.375 C-8.74375 18.58125 -9.3625 18.7875 -10 19 C-8.62223181 14.27827359 -6.59101512 10.27437928 -4 6.125 C-3.64421875 5.53203125 -3.2884375 4.9390625 -2.921875 4.328125 C-2.00730003 2.84705957 -1.00976463 1.41787784 0 0 Z " fill="#3C94CC" transform="translate(80,20)"/>
<path d="M0 0 C0.99 0.33 1.98 0.66 3 1 C3 1.66 3 2.32 3 3 C4.98 2.67 6.96 2.34 9 2 C10.10228696 6.40914783 10.07654536 10.48382401 10 15 C9.01 15.495 9.01 15.495 8 16 C6.66141476 13.71125827 5.32898986 11.41930344 4 9.125 C3.6184375 8.47402344 3.236875 7.82304687 2.84375 7.15234375 C0 2.2265625 0 2.2265625 0 0 Z " fill="#E7E9EC" transform="translate(118,158)"/>
<path d="M0 0 C0.598125 0.185625 1.19625 0.37125 1.8125 0.5625 C4.16408762 1.22093687 4.16408762 1.22093687 7 0 C8.5625 1.125 8.5625 1.125 10 3 C9.75 5.875 9.75 5.875 9 9 C8.814375 9.94875 8.62875 10.8975 8.4375 11.875 C8.293125 12.57625 8.14875 13.2775 8 14 C5.66635648 11.07096942 3.95039164 8.11431797 2.3125 4.75 C1.65701172 3.41195312 1.65701172 3.41195312 0.98828125 2.046875 C0.66214844 1.37140625 0.33601563 0.6959375 0 0 Z " fill="#E8E9EC" transform="translate(110,144)"/>
<path d="M0 0 C0.33 0.99 0.66 1.98 1 3 C1.99 3 2.98 3 4 3 C4 2.34 4 1.68 4 1 C5.32 1.33 6.64 1.66 8 2 C6.79157144 6.43090471 5.48331435 8.98112756 2 12 C-0.69319525 8.18464006 -1.42407099 5.66478085 -1 1 C-0.67 0.67 -0.34 0.34 0 0 Z " fill="#121C31" transform="translate(142,119)"/>
<path d="M0 0 C4.02056219 3.50415971 6.24402136 7.62985697 8.75 12.25 C9.16121094 12.99507812 9.57242188 13.74015625 9.99609375 14.5078125 C11.00349544 16.33519231 12.00258786 18.16714863 13 20 C12.34 20.33 11.68 20.66 11 21 C8 17.375 8 17.375 8 14 C7.01 13.67 6.02 13.34 5 13 C4.71125 12.401875 4.4225 11.80375 4.125 11.1875 C2.64462682 8.30899659 0.57721429 6.89900001 -2 5 C-1.34 3.35 -0.68 1.7 0 0 Z " fill="#3BA3EC" transform="translate(106,66)"/>
<path d="M0 0 C0.33 0 0.66 0 1 0 C1.1875 2.3125 1.1875 2.3125 1 5 C-0.4375 6.625 -0.4375 6.625 -2 8 C-2.33 8.99 -2.66 9.98 -3 11 C-3.66 11 -4.32 11 -5 11 C-5.33 12.98 -5.66 14.96 -6 17 C-6.66 17 -7.32 17 -8 17 C-8.226875 17.66 -8.45375 18.32 -8.6875 19 C-13.08 29.04 -13.08 29.04 -17 31 C-15.67945723 27.51168589 -14.14554233 24.32479682 -12.28515625 21.09375 C-11.76373047 20.18496094 -11.24230469 19.27617188 -10.70507812 18.33984375 C-10.16302734 17.40269531 -9.62097656 16.46554688 -9.0625 15.5 C-8.52431641 14.56285156 -7.98613281 13.62570313 -7.43164062 12.66015625 C-5.96078972 10.1029432 -4.48727254 7.5476976 -3 5 C-2.46689209 4.07380859 -1.93378418 3.14761719 -1.38452148 2.19335938 C-0.92762939 1.46955078 -0.4707373 0.74574219 0 0 Z " fill="#3E9AD7" transform="translate(58,58)"/>
<path d="M0 0 C0.99 0.33 1.98 0.66 3 1 C3.33 2.65 3.66 4.3 4 6 C2.68 6 1.36 6 0 6 C-0.103125 6.763125 -0.20625 7.52625 -0.3125 8.3125 C-1.04364039 11.17059424 -1.76951913 12.15742885 -4 14 C-4 13.34 -4 12.68 -4 12 C-4.66 12 -5.32 12 -6 12 C-4.68139111 7.38486888 -2.78644563 3.90102388 0 0 Z " fill="#111D36" transform="translate(164,171)"/>
<path d="M0 0 C0.66 0 1.32 0 2 0 C0.09090909 9.81818182 0.09090909 9.81818182 -2 14 C-4.17580941 15.42787492 -5.4000055 16 -8 16 C-6.57250019 12.20950293 -4.83763458 8.72877544 -2.875 5.1875 C-2.33617187 4.21167969 -1.79734375 3.23585937 -1.2421875 2.23046875 C-0.83226562 1.49441406 -0.42234375 0.75835937 0 0 Z " fill="#131D34" transform="translate(152,191)"/>
<path d="M0 0 C0.66 0 1.32 0 2 0 C2 0.99 2 1.98 2 3 C3.32 3.33 4.64 3.66 6 4 C5 5 5 5 2.4375 5.0625 C1.2309375 5.0315625 1.2309375 5.0315625 0 5 C0 5.66 0 6.32 0 7 C-8.58 7 -17.16 7 -26 7 C-26 6.67 -26 6.34 -26 6 C-17.75 6 -9.5 6 -1 6 C-1 5.34 -1 4.68 -1 4 C-1.66 4 -2.32 4 -3 4 C-3 3.34 -3 2.68 -3 2 C-2.01 2 -1.02 2 0 2 C0 1.34 0 0.68 0 0 Z " fill="#289EEB" transform="translate(64,102)"/>
<path d="M0 0 C-1.42749981 3.79049707 -3.16236542 7.27122456 -5.125 10.8125 C-5.93324219 12.27623047 -5.93324219 12.27623047 -6.7578125 13.76953125 C-7.16773437 14.50558594 -7.57765625 15.24164063 -8 16 C-8.66 16 -9.32 16 -10 16 C-9.690625 15.154375 -9.38125 14.30875 -9.0625 13.4375 C-7.87824308 10.00638 -7.87824308 10.00638 -7.625 6.3125 C-7 3 -7 3 -5.125 1.0625 C-3 0 -3 0 0 0 Z " fill="#309BE4" transform="translate(82,89)"/>
<path d="M0 0 C1.75 0.0625 1.75 0.0625 4 1 C6.00840495 3.70049044 8 6.55126733 8 10 C5.125 10.125 5.125 10.125 2 10 C0 8 0 8 -0.1953125 6.0546875 C-0.13020833 4.03645833 -0.06510417 2.01822917 0 0 Z " fill="#121E33" transform="translate(128,182)"/>
<path d="M0 0 C1.32 0.33 2.64 0.66 4 1 C2.35 4.3 0.7 7.6 -1 11 C-1.99 11 -2.98 11 -4 11 C-4.99 9.02 -5.98 7.04 -7 5 C-5.35 5 -3.7 5 -2 5 C-1.34 3.35 -0.68 1.7 0 0 Z " fill="#DBE0E9" transform="translate(147,193)"/>
<path d="M0 0 C2.13048887 2.74584188 3.9688863 5.53406085 5.69921875 8.546875 C6.18583984 9.39121094 6.67246094 10.23554687 7.17382812 11.10546875 C7.67333984 11.97816406 8.17285156 12.85085937 8.6875 13.75 C9.19861328 14.63816406 9.70972656 15.52632812 10.23632812 16.44140625 C11.49321708 18.62627864 12.74768651 20.81250291 14 23 C13.34 23.66 12.68 24.32 12 25 C11.59007813 24.21753906 11.18015625 23.43507813 10.7578125 22.62890625 C10.21898438 21.61699219 9.68015625 20.60507812 9.125 19.5625 C8.59132813 18.55316406 8.05765625 17.54382813 7.5078125 16.50390625 C6.24345886 13.89859558 6.24345886 13.89859558 4 13 C3.375 9.9375 3.375 9.9375 3 7 C2.34 7 1.68 7 1 7 C0.67 4.69 0.34 2.38 0 0 Z " fill="#3F9ADB" transform="translate(87,31)"/>
<path d="M0 0 C0.66 0 1.32 0 2 0 C2.185625 0.9590625 2.185625 0.9590625 2.375 1.9375 C2.684375 2.9584375 2.684375 2.9584375 3 4 C3.66 4.33 4.32 4.66 5 5 C5.33 4.01 5.66 3.02 6 2 C6.66 2.33 7.32 2.66 8 3 C8 4.65 8 6.3 8 8 C7.34 8 6.68 8 6 8 C6.33 9.32 6.66 10.64 7 12 C6.01 12.495 6.01 12.495 5 13 C3.02 9.04 1.04 5.08 -1 1 C-0.67 0.67 -0.34 0.34 0 0 Z " fill="#09274E" transform="translate(88,29)"/>
<path d="M0 0 C1.32 0 2.64 0 4 0 C3.67 1.65 3.34 3.3 3 5 C2.34 5 1.68 5 1 5 C1 5.66 1 6.32 1 7 C0.34 7 -0.32 7 -1 7 C-1.28875 7.78375 -1.5775 8.5675 -1.875 9.375 C-3 12 -3 12 -5 14 C-6 11 -6 11 -4.78515625 8.30078125 C-4.21667969 7.31464844 -3.64820313 6.32851562 -3.0625 5.3125 C-2.49660156 4.31863281 -1.93070313 3.32476562 -1.34765625 2.30078125 C-0.90292969 1.54152344 -0.45820313 0.78226563 0 0 Z " fill="#121A2F" transform="translate(172,156)"/>
<path d="M0 0 C-0.99 1.485 -0.99 1.485 -2 3 C-4.33837891 3.34057617 -4.33837891 3.34057617 -7.2265625 3.29296875 C-8.2578125 3.28330078 -9.2890625 3.27363281 -10.3515625 3.26367188 C-11.43179688 3.23853516 -12.51203125 3.21339844 -13.625 3.1875 C-14.71296875 3.17396484 -15.8009375 3.16042969 -16.921875 3.14648438 C-19.61507409 3.11104754 -22.30729374 3.06164331 -25 3 C-25 2.67 -25 2.34 -25 2 C-19.72 2 -14.44 2 -9 2 C-9 1.34 -9 0.68 -9 0 C-5.62182575 -0.84454356 -3.32534757 -1.10844919 0 0 Z " fill="#3B97D4" transform="translate(73,107)"/>
<path d="M0 0 C0.99 0 1.98 0 3 0 C2.53721939 2.15964285 2.01661849 3.96780167 1 5.9375 C-0.13083993 8.26985735 -0.57542072 10.45252434 -1 13 C-1.33 12.34 -1.66 11.68 -2 11 C-2.99 11.33 -3.98 11.66 -5 12 C-4.42365861 7.24518354 -2.44931479 4.02951788 0 0 Z " fill="#162133" transform="translate(184,135)"/>
<path d="M0 0 C0.33 0.66 0.66 1.32 1 2 C1.66 2 2.32 2 3 2 C3.0825 2.94875 3.165 3.8975 3.25 4.875 C3.4975 5.90625 3.745 6.9375 4 8 C4.99 8.433125 4.99 8.433125 6 8.875 C6.66 9.24625 7.32 9.6175 8 10 C8.69009775 12.69360735 8.81968745 15.20515553 9 18 C8.34 18 7.68 18 7 18 C5.82333996 15.75474054 4.6585926 13.50455858 3.5 11.25 C3.16613281 10.61578125 2.83226563 9.9815625 2.48828125 9.328125 C0.72824467 5.87989007 0 3.95159931 0 0 Z " fill="#3893D1" transform="translate(82,92)"/>
<path d="M0 0 C0.33 0 0.66 0 1 0 C1 1.98 1 3.96 1 6 C0.01 6.33 -0.98 6.66 -2 7 C-2.39044206 8.31774196 -2.70955086 9.65667272 -3 11 C-3.96887581 13.01526169 -4.9641321 15.01833966 -6 17 C-6.66 16.67 -7.32 16.34 -8 16 C-6.57250019 12.20950293 -4.83763458 8.72877544 -2.875 5.1875 C-2.33617188 4.21167969 -1.79734375 3.23585937 -1.2421875 2.23046875 C-0.83226563 1.49441406 -0.42234375 0.75835937 0 0 Z " fill="#3E98D8" transform="translate(67,42)"/>
<path d="M0 0 C2.0245738 1.93254772 3.42105792 3.63158688 5 6 C4.625 8.1875 4.625 8.1875 4 10 C3.01 10 2.02 10 1 10 C1 9.34 1 8.68 1 8 C0.34 8 -0.32 8 -1 8 C-0.67 5.36 -0.34 2.72 0 0 Z " fill="#101E36" transform="translate(115,155)"/>
<path d="M0 0 C0.99 0 1.98 0 3 0 C3 0.66 3 1.32 3 2 C2.34 2 1.68 2 1 2 C1.33 3.051875 1.66 4.10375 2 5.1875 C2.83966782 8.38873357 3.19750904 10.7411008 3 14 C0.33961103 10.85590394 -0.7083791 7.87486269 -2 4 C-2.66 3.67 -3.32 3.34 -4 3 C-2.68 2.67 -1.36 2.34 0 2 C0 1.34 0 0.68 0 0 Z " fill="#062852" transform="translate(84,16)"/>
<path d="M0 0 C0.66 0.33 1.32 0.66 2 1 C-0.31 4.96 -2.62 8.92 -5 13 C-7 11 -7 11 -7.125 8.375 C-7.08375 7.59125 -7.0425 6.8075 -7 6 C-6.401875 5.938125 -5.80375 5.87625 -5.1875 5.8125 C-2.12856542 4.6763243 -1.44958901 2.82669858 0 0 Z " fill="#05244D" transform="translate(50,69)"/>
<path d="M0 0 C0.99 0.33 1.98 0.66 3 1 C0.36 5.62 -2.28 10.24 -5 15 C-5.33 15 -5.66 15 -6 15 C-6.20086443 11.28400809 -6.1519437 10.22791555 -4 7 C-3.34 7 -2.68 7 -2 7 C-1.34 4.69 -0.68 2.38 0 0 Z " fill="#042451" transform="translate(64,43)"/>
<path d="M0 0 C3.28465896 2.79196011 5.01321958 6.23196817 7 10 C7 10.66 7 11.32 7 12 C3.24623848 10.74874616 2.75926711 9.4347596 1 6 C1 5.34 1 4.68 1 4 C0.01 3.67 -0.98 3.34 -2 3 C-1.34 2.01 -0.68 1.02 0 0 Z " fill="#062D56" transform="translate(80,93)"/>
<path d="M0 0 C3.03656917 2.5988655 4.46163739 5.62071728 6.1875 9.1875 C6.71730469 10.27417969 7.24710937 11.36085938 7.79296875 12.48046875 C8.19128906 13.31191406 8.58960937 14.14335938 9 15 C8.34 15 7.68 15 7 15 C4.70351351 12.4385343 4 11.52032428 4 8 C3.01 7.67 2.02 7.34 1 7 C0.67 4.69 0.34 2.38 0 0 Z " fill="#3B97D0" transform="translate(110,72)"/>
<path d="M0 0 C0.99 0.33 1.98 0.66 3 1 C3 1.66 3 2.32 3 3 C3.99 3.33 4.98 3.66 6 4 C7.1875 7.0625 7.1875 7.0625 8 10 C5.5625 9.375 5.5625 9.375 3 8 C2.1875 4.875 2.1875 4.875 2 2 C1.34 2 0.68 2 0 2 C0 1.34 0 0.68 0 0 Z " fill="#111B2D" transform="translate(97,127)"/>
<path d="M0 0 C0.5534764 2.07553648 1 3.84365964 1 6 C2.32 6.66 3.64 7.32 5 8 C4.67 8.99 4.34 9.98 4 11 C2.68 11 1.36 11 0 11 C-1.125 3.375 -1.125 3.375 0 0 Z " fill="#30A7EB" transform="translate(41,89)"/>
<path d="M0 0 C0.99 0.33 1.98 0.66 3 1 C3.6875 3.0625 3.6875 3.0625 4 5 C4.66 5 5.32 5 6 5 C6.33 7.31 6.66 9.62 7 12 C0 3.55172414 0 3.55172414 0 0 Z " fill="#042A56" transform="translate(106,63)"/>
<path d="M0 0 C3 0 3 0 4.6875 1.5 C5.120625 1.995 5.55375 2.49 6 3 C5.34 3.66 4.68 4.32 4 5 C3.34 5 2.68 5 2 5 C1.01 5.33 0.02 5.66 -1 6 C-1.042721 4.33388095 -1.04063832 2.66617115 -1 1 C-0.67 0.67 -0.34 0.34 0 0 Z " fill="#0E172E" transform="translate(192,122)"/>
<path d="M0 0 C3 1 3 1 4.25 3.3125 C5.0275526 6.09873015 4.98726527 7.33438378 4 10 C3.34 9.67 2.68 9.34 2 9 C1.3671875 6.93359375 1.3671875 6.93359375 0.875 4.4375 C0.70742187 3.61121094 0.53984375 2.78492187 0.3671875 1.93359375 C0.24601562 1.29550781 0.12484375 0.65742187 0 0 Z " fill="#171F37" transform="translate(124,87)"/>
<path d="M0 0 C0.625 1.875 0.625 1.875 1 4 C0.34 4.66 -0.32 5.32 -1 6 C-3.625 5.625 -3.625 5.625 -6 5 C-5.34 3.68 -4.68 2.36 -4 1 C-3.01 1.33 -2.02 1.66 -1 2 C-0.67 1.34 -0.34 0.68 0 0 Z " fill="#EDEDEE" transform="translate(146,193)"/>
<path d="M0 0 C3.06006595 2.04004397 3.77157178 2.69269325 5 6 C5.125 8.75 5.125 8.75 5 11 C2.47650757 7.87567603 0.72743854 4.61939504 -1 1 C-0.67 0.67 -0.34 0.34 0 0 Z " fill="#062952" transform="translate(123,91)"/>
<path d="M0 0 C0.99 0.33 1.98 0.66 3 1 C2.814375 1.763125 2.62875 2.52625 2.4375 3.3125 C1.77180827 6.08967375 1.77180827 6.08967375 3 9 C1.68 8.34 0.36 7.68 -1 7 C-1.04254356 5.00045254 -1.04080783 2.99958364 -1 1 C-0.67 0.67 -0.34 0.34 0 0 Z " fill="#ECEFF1" transform="translate(109,130)"/>
<path d="M0 0 C2.0625 1.75 2.0625 1.75 4 4 C3.75 6.25 3.75 6.25 3 8 C2.34 7.01 1.68 6.02 1 5 C0.01 4.67 -0.98 4.34 -2 4 C-1.34 2.68 -0.68 1.36 0 0 Z " fill="#131D35" transform="translate(139,198)"/>
<path d="M0 0 C0.66 0.66 1.32 1.32 2 2 C1.625 4.625 1.625 4.625 1 7 C-0.32 6.34 -1.64 5.68 -3 5 C-2.625 3.0625 -2.625 3.0625 -2 1 C-1.34 0.67 -0.68 0.34 0 0 Z " fill="#0E1A33" transform="translate(157,185)"/>
<path d="M0 0 C0.99 0.99 1.98 1.98 3 3 C2.34 4.32 1.68 5.64 1 7 C0.01 6.67 -0.98 6.34 -2 6 C-1.34 4.02 -0.68 2.04 0 0 Z " fill="#0F1D35" transform="translate(139,113)"/>
<path d="M0 0 C0.66 0 1.32 0 2 0 C2.99 2.31 3.98 4.62 5 7 C3.68 7 2.36 7 1 7 C0.67 4.69 0.34 2.38 0 0 Z " fill="#3B9DE1" transform="translate(82,24)"/>
<path d="M0 0 C0.66 0.99 1.32 1.98 2 3 C2.33 2.01 2.66 1.02 3 0 C3.33 0.66 3.66 1.32 4 2 C2.68 3.65 1.36 5.3 0 7 C0 6.34 0 5.68 0 5 C-0.66 5 -1.32 5 -2 5 C-1.34 3.35 -0.68 1.7 0 0 Z " fill="#0B182E" transform="translate(160,178)"/>
<path d="M0 0 C1.5 1.0625 1.5 1.0625 3 3 C3.1875 6.6875 3.1875 6.6875 3 10 C2.01 9.67 1.02 9.34 0 9 C0 6 0 3 0 0 Z " fill="#0D192E" transform="translate(121,166)"/>
<path d="M0 0 C0.99 0.66 1.98 1.32 3 2 C2.67 3.65 2.34 5.3 2 7 C1.67 6.34 1.34 5.68 1 5 C0.01 5.33 -0.98 5.66 -2 6 C-1.125 1.125 -1.125 1.125 0 0 Z " fill="#0F192E" transform="translate(181,141)"/>
<path d="M0 0 C0.99 0.33 1.98 0.66 3 1 C2.1875 3.4375 2.1875 3.4375 1 6 C0.01 6.33 -0.98 6.66 -2 7 C-1.125 1.125 -1.125 1.125 0 0 Z " fill="#091F3B" transform="translate(133,104)"/>
<path d="M0 0 C0.66 0 1.32 0 2 0 C1.75 2.375 1.75 2.375 1 5 C-1.0625 6.3125 -1.0625 6.3125 -3 7 C-1.125 1.125 -1.125 1.125 0 0 Z " fill="#3D99DB" transform="translate(73,32)"/>
<path d="M0 0 C1.5625 1.25 1.5625 1.25 3 3 C2.6875 5.1875 2.6875 5.1875 2 7 C1.01 6.67 0.02 6.34 -1 6 C-1.042721 4.33388095 -1.04063832 2.66617115 -1 1 C-0.67 0.67 -0.34 0.34 0 0 Z " fill="#0F1D31" transform="translate(80,97)"/>
<path d="M0 0 C0.99 1.32 1.98 2.64 3 4 C0.69 4 -1.62 4 -4 4 C-4 3.01 -4 2.02 -4 1 C-2.68 0.67 -1.36 0.34 0 0 Z " fill="#24AAEB" transform="translate(116,100)"/>
<path d="M0 0 C0.99 0 1.98 0 3 0 C3 0.99 3 1.98 3 3 C3.66 3 4.32 3 5 3 C5 4.98 5 6.96 5 9 C2.67527795 6.14693203 1.2491742 3.45925163 0 0 Z " fill="#042A50" transform="translate(116,81)"/>
<path d="M0 0 C1.89213369 2.38573379 3.02391783 4.07175348 4 7 C1.525 6.01 1.525 6.01 -1 5 C-0.67 3.35 -0.34 1.7 0 0 Z " fill="#172234" transform="translate(124,170)"/>
<path d="M0 0 C0.66 0 1.32 0 2 0 C2.33 1.32 2.66 2.64 3 4 C2.01 4.66 1.02 5.32 0 6 C-0.66 5.67 -1.32 5.34 -2 5 C-1.34 3.35 -0.68 1.7 0 0 Z " fill="#0B172C" transform="translate(188,129)"/>
<path d="M0 0 C1.98 0 3.96 0 6 0 C5.67 1.32 5.34 2.64 5 4 C3.0625 3.6875 3.0625 3.6875 1 3 C0.67 2.01 0.34 1.02 0 0 Z " fill="#E6E8F3" transform="translate(97,121)"/>
<path d="M0 0 C0.66 0.33 1.32 0.66 2 1 C0.35 3.64 -1.3 6.28 -3 9 C-3.33 8.01 -3.66 7.02 -4 6 C-2.0625 2.8125 -2.0625 2.8125 0 0 Z " fill="#062F5D" transform="translate(36,94)"/>
<path d="M0 0 C0.66 0 1.32 0 2 0 C0.7508258 3.45925163 -0.67527795 6.14693203 -3 9 C-3.25532751 5.93606987 -3.21861333 4.36766788 -1.625 1.6875 C-0.820625 0.8521875 -0.820625 0.8521875 0 0 Z " fill="#072350" transform="translate(42,82)"/>
<path d="M0 0 C0.66 0 1.32 0 2 0 C3.625 2 3.625 2 5 4 C4.01 4.99 3.02 5.98 2 7 C1.34 6.67 0.68 6.34 0 6 C0 4.02 0 2.04 0 0 Z " fill="#0B203C" transform="translate(100,45)"/>
<path d="M0 0 C3.24732932 1.62366466 3.70155136 4.75387839 5 8 C4.01 8.495 4.01 8.495 3 9 C1.68 6.36 0.36 3.72 -1 1 C-0.67 0.67 -0.34 0.34 0 0 Z " fill="#D8DEE8" transform="translate(123,165)"/>
<path d="M0 0 C2.62187494 1.04874998 3.79371361 1.64931313 5.25 4.125 C5.4975 4.74375 5.745 5.3625 6 6 C5.01 6.33 4.02 6.66 3 7 C2.01 4.69 1.02 2.38 0 0 Z " fill="#D8DEE2" transform="translate(110,144)"/>
<path d="M0 0 C0.66 0 1.32 0 2 0 C2 0.99 2 1.98 2 3 C3.32 3.33 4.64 3.66 6 4 C5 5 5 5 2.4375 5.0625 C1.2309375 5.0315625 1.2309375 5.0315625 0 5 C0 3.35 0 1.7 0 0 Z " fill="#1BA2EC" transform="translate(64,102)"/>
<path d="M0 0 C0.66 0.33 1.32 0.66 2 1 C1.67 3.64 1.34 6.28 1 9 C-0.625 7.3125 -0.625 7.3125 -2 5 C-1.1875 2.25 -1.1875 2.25 0 0 Z " fill="#05223E" transform="translate(78,97)"/>
<path d="M0 0 C0.66 0.33 1.32 0.66 2 1 C0.68 3.31 -0.64 5.62 -2 8 C-2.66 8 -3.32 8 -4 8 C-3.34 6.02 -2.68 4.04 -2 2 C-1.34 2 -0.68 2 0 2 C0 1.34 0 0.68 0 0 Z " fill="#398CC5" transform="translate(76,97)"/>
<path d="M0 0 C0.99 0 1.98 0 3 0 C3.625 1.875 3.625 1.875 4 4 C3.34 4.66 2.68 5.32 2 6 C1.34 5.34 0.68 4.68 0 4 C0 2.68 0 1.36 0 0 Z " fill="#1FA9F6" transform="translate(52,71)"/>
<path d="M0 0 C0.33 0.66 0.66 1.32 1 2 C2.32 2 3.64 2 5 2 C4.67 3.32 4.34 4.64 4 6 C3.01 5.67 2.02 5.34 1 5 C0.67 3.35 0.34 1.7 0 0 Z " fill="#151A3B" transform="translate(72,18)"/>
</svg>
