<?xml version="1.0" encoding="UTF-8"?>
<svg version="1.1" xmlns="http://www.w3.org/2000/svg" width="118" height="120">
<path d="M0 0 C5.66482653 0.52464071 9.99002182 2.09078165 15.0859375 4.5625 C15.82832672 4.9138501 16.57071594 5.2652002 17.33560181 5.62719727 C19.68635669 6.74270269 22.03052154 7.87137337 24.375 9 C25.97226841 9.75862961 27.56992125 10.51645041 29.16796875 11.2734375 C30.68263413 11.99407231 32.19696927 12.71540171 33.7109375 13.4375 C34.78581924 13.95002319 34.78581924 13.95002319 35.88241577 14.47290039 C40.8812302 16.8812302 40.8812302 16.8812302 42 18 C42.09436529 20.23929886 42.11742327 22.4816175 42.11352539 24.72290039 C42.11367142 25.4253035 42.11381744 26.1277066 42.1139679 26.85139465 C42.11326872 29.18351278 42.10547617 31.515552 42.09765625 33.84765625 C42.09579208 35.46048438 42.09436818 37.07331307 42.09336853 38.68614197 C42.08954323 42.93915357 42.07971285 47.19213124 42.06866455 51.44512939 C42.05845069 55.7817743 42.05387096 60.11842467 42.04882812 64.45507812 C42.03809059 72.97006769 42.02101403 81.48502963 42 90 C34.00131571 92.33785499 26.00134336 94.6712616 18 97 C17.1875885 97.23654297 16.375177 97.47308594 15.53814697 97.71679688 C11.13483887 98.99678048 6.72553294 100.25385173 2.3125 101.5 C1.07951172 101.85835938 -0.15347656 102.21671875 -1.42382812 102.5859375 C-3.19983398 103.08480469 -3.19983398 103.08480469 -5.01171875 103.59375 C-6.04772217 103.88958984 -7.08372559 104.18542969 -8.15112305 104.49023438 C-14.01139949 105.5388467 -18.32679782 103.04782611 -23.453125 100.4375 C-24.15395203 100.0861499 -24.85477905 99.7347998 -25.57684326 99.37280273 C-27.05069027 98.63252967 -28.52310005 97.88938902 -29.99414062 97.14355469 C-32.25340266 95.9982751 -34.51687461 94.86169349 -36.78125 93.7265625 C-38.21379342 93.00570841 -39.64609383 92.28437117 -41.078125 91.5625 C-41.75723938 91.22081787 -42.43635376 90.87913574 -43.13604736 90.52709961 C-47.88278486 88.11721514 -47.88278486 88.11721514 -49 87 C-49.09436529 84.76070114 -49.11742327 82.5183825 -49.11352539 80.27709961 C-49.11367142 79.5746965 -49.11381744 78.8722934 -49.1139679 78.14860535 C-49.11326872 75.81648722 -49.10547617 73.484448 -49.09765625 71.15234375 C-49.09579208 69.53951562 -49.09436818 67.92668693 -49.09336853 66.31385803 C-49.08954323 62.06084643 -49.07971285 57.80786876 -49.06866455 53.55487061 C-49.05845069 49.2182257 -49.05387096 44.88157533 -49.04882812 40.54492188 C-49.03809059 32.02993231 -49.02101403 23.51497037 -49 15 C-43.17000764 13.00861058 -37.32046757 11.17516641 -31.38671875 9.51953125 C-30.60988235 9.30181564 -29.83304596 9.08410004 -29.03266907 8.85978699 C-27.40875788 8.40570978 -25.7845017 7.95286471 -24.15991211 7.5012207 C-21.67472512 6.8089414 -19.19186817 6.10869176 -16.70898438 5.40820312 C-15.12253195 4.9656576 -13.53594796 4.52358335 -11.94921875 4.08203125 C-11.21064133 3.87270462 -10.4720639 3.66337799 -9.71110535 3.44770813 C-6.30794906 2.50991745 -3.56180452 2 0 2 C0 1.34 0 0.68 0 0 Z " fill="#3C3B54" transform="translate(63,9)"/>
<path d="M0 0 C5.66482653 0.52464071 9.99002182 2.09078165 15.0859375 4.5625 C15.82832672 4.9138501 16.57071594 5.2652002 17.33560181 5.62719727 C19.68635669 6.74270269 22.03052154 7.87137337 24.375 9 C25.97226841 9.75862961 27.56992125 10.51645041 29.16796875 11.2734375 C30.68263413 11.99407231 32.19696927 12.71540171 33.7109375 13.4375 C34.78581924 13.95002319 34.78581924 13.95002319 35.88241577 14.47290039 C40.8812302 16.8812302 40.8812302 16.8812302 42 18 C42.09436529 20.23929886 42.11742327 22.4816175 42.11352539 24.72290039 C42.11367142 25.4253035 42.11381744 26.1277066 42.1139679 26.85139465 C42.11326872 29.18351278 42.10547617 31.515552 42.09765625 33.84765625 C42.09579208 35.46048438 42.09436818 37.07331307 42.09336853 38.68614197 C42.08954323 42.93915357 42.07971285 47.19213124 42.06866455 51.44512939 C42.05845069 55.7817743 42.05387096 60.11842467 42.04882812 64.45507812 C42.03809059 72.97006769 42.02101403 81.48502963 42 90 C40.02 89.505 40.02 89.505 38 89 C38.33 88.67 38.66 88.34 39 88 C39.1603556 84.97192956 39.25960448 81.96414546 39.31640625 78.93359375 C39.3475779 77.57065941 39.3475779 77.57065941 39.37937927 76.18019104 C39.44497672 73.26604054 39.5038068 70.35179696 39.5625 67.4375 C39.60567554 65.46678709 39.64928951 63.49608374 39.69335938 61.52539062 C39.80066843 56.68369012 39.90190675 51.84189563 40 47 C37.03 47.66 34.06 48.32 31 49 C31 56.92 31 64.84 31 73 C25.77705366 74.95860488 20.8343663 76.70003247 15.5 78.1875 C14.2728125 78.53167969 13.045625 78.87585938 11.78125 79.23046875 C10.8634375 79.48441406 9.945625 79.73835938 9 80 C8.67 82.97 8.34 85.94 8 89 C4.12315913 90.19287411 1.08378077 91 -3 91 C-3 74.5 -3 58 -3 41 C0.96 41.99 4.92 42.98 9 44 C14.47900402 45.55481986 14.47900402 45.55481986 16.93457031 43.92016602 C17.47694336 43.37030029 18.01931641 42.82043457 18.578125 42.25390625 C19.18140625 41.66416016 19.7846875 41.07441406 20.40625 40.46679688 C21.0146875 39.83837891 21.623125 39.20996094 22.25 38.5625 C23.48048835 37.33074049 24.71468288 36.10266856 25.953125 34.87890625 C26.49098633 34.3279126 27.02884766 33.77691895 27.58300781 33.20922852 C29 32 29 32 31 32 C31.495 39.425 31.495 39.425 32 47 C33.65 46.34 35.3 45.68 37 45 C37.99 45 38.98 45 40 45 C39.67 37.08 39.34 29.16 39 21 C36.64875 21.12375 34.2975 21.2475 31.875 21.375 C31.14651855 21.40899902 30.41803711 21.44299805 29.66748047 21.47802734 C25.43401657 21.73178257 21.96464331 22.55282982 18 24 C14.94892836 24.91574643 11.88078627 25.76896555 8.8125 26.625 C8.00619141 26.85445312 7.19988281 27.08390625 6.36914062 27.3203125 C5.59376953 27.536875 4.81839844 27.7534375 4.01953125 27.9765625 C3.31932861 28.17330566 2.61912598 28.37004883 1.89770508 28.57275391 C-0 29 -0 29 -3 29 C-3 29.66 -3 30.32 -3 31 C-6.31414318 32.9542859 -9.14632915 33.81367865 -13 34 C-19.03114825 32.32284918 -24.5496837 29.00697939 -30 26 C-31.09828125 25.41476563 -32.1965625 24.82953125 -33.328125 24.2265625 C-35.09590986 23.27504988 -36.85667937 22.31020824 -38.60546875 21.32421875 C-41.35993686 19.80094846 -44.18469228 18.40765386 -47 17 C-47.33 40.1 -47.66 63.2 -48 87 C-48.33 87 -48.66 87 -49 87 C-49 63.24 -49 39.48 -49 15 C-43.13902103 13.04634034 -37.32766604 11.17717492 -31.38671875 9.51953125 C-30.60988235 9.30181564 -29.83304596 9.08410004 -29.03266907 8.85978699 C-27.40875788 8.40570978 -25.7845017 7.95286471 -24.15991211 7.5012207 C-21.67472512 6.8089414 -19.19186817 6.10869176 -16.70898438 5.40820312 C-15.12253195 4.9656576 -13.53594796 4.52358335 -11.94921875 4.08203125 C-11.21064133 3.87270462 -10.4720639 3.66337799 -9.71110535 3.44770813 C-6.30794906 2.50991745 -3.56180452 2 0 2 C0 1.34 0 0.68 0 0 Z " fill="#49475F" transform="translate(63,9)"/>
<path d="M0 0 C0.66 0 1.32 0 2 0 C2 5.28 2 10.56 2 16 C2.66 16.33 3.32 16.66 4 17 C3.34 17 2.68 17 2 17 C2 30.86 2 44.72 2 59 C-1 60 -1 60 -4.27807617 58.64477539 C-5.62154658 57.97264408 -6.959545 57.28950476 -8.29296875 56.59765625 C-8.99899734 56.24110458 -9.70502594 55.88455292 -10.43244934 55.51719666 C-12.68899078 54.37491882 -14.93818854 53.21893922 -17.1875 52.0625 C-18.7150317 51.28619748 -20.24302131 50.51079527 -21.77148438 49.73632812 C-25.51971844 47.83462936 -29.26142412 45.92061164 -33 44 C-33.19618517 22.52225139 -33.19618517 22.52225139 -32.21875 13.27734375 C-31.9362568 10.717692 -31.9362568 10.717692 -32 7 C-32 6.34 -32 5.68 -32 5 C-27.95649606 3.81623151 -26.29180874 3.86967765 -22.37890625 5.6171875 C-21.09735789 6.35364887 -19.8252783 7.10679916 -18.5625 7.875 C-13.58953733 10.85775959 -9.87286968 12.3420146 -4 13 C-2.68 13.66 -1.36 14.32 0 15 C0 10.05 0 5.1 0 0 Z " fill="#2D2C3F" transform="translate(48,53)"/>
<path d="M0 0 C0 13.53 0 27.06 0 41 C-5.22294634 42.95860488 -10.1656337 44.70003247 -15.5 46.1875 C-16.7271875 46.53167969 -17.954375 46.87585938 -19.21875 47.23046875 C-20.1365625 47.48441406 -21.054375 47.73835938 -22 48 C-22.33 50.97 -22.66 53.94 -23 57 C-26.87684087 58.19287411 -29.91621923 59 -34 59 C-34 42.5 -34 26 -34 9 C-28.06 10.485 -28.06 10.485 -22 12 C-16.52099598 13.55481986 -16.52099598 13.55481986 -14.06542969 11.92016602 C-13.52305664 11.37030029 -12.98068359 10.82043457 -12.421875 10.25390625 C-11.81859375 9.66416016 -11.2153125 9.07441406 -10.59375 8.46679688 C-9.68109375 7.52416992 -9.68109375 7.52416992 -8.75 6.5625 C-7.51951165 5.33074049 -6.28531712 4.10266856 -5.046875 2.87890625 C-4.24008301 2.05241577 -4.24008301 2.05241577 -3.41699219 1.20922852 C-2 0 -2 0 0 0 Z " fill="#2A9EEC" transform="translate(94,41)"/>
<path d="M0 0 C0 14.66666667 0 29.33333333 0 44 C-4.5683552 45.29334176 -9.13985982 46.57464053 -13.71459961 47.84521484 C-15.26824175 48.27849635 -16.82099672 48.71497286 -18.37280273 49.15478516 C-20.61212401 49.78884017 -22.85445486 50.41108173 -25.09765625 51.03125 C-25.78336197 51.22811401 -26.46906769 51.42497803 -27.17555237 51.62780762 C-31.54972665 52.82171968 -35.47547923 53.18519926 -40 53 C-40 52.01 -40 51.02 -40 50 C-38.68 49.34 -37.36 48.68 -36 48 C-36.33 47.34 -36.66 46.68 -37 46 C-35.515 45.505 -35.515 45.505 -34 45 C-31.84362154 43.3353373 -31.09499565 42.41986625 -30.48828125 39.73828125 C-30.43027344 38.93777344 -30.37226562 38.13726562 -30.3125 37.3125 C-30.24675781 36.50425781 -30.18101563 35.69601563 -30.11328125 34.86328125 C-30.07589844 34.24839844 -30.03851563 33.63351563 -30 33 C-28.906875 32.855625 -27.81375 32.71125 -26.6875 32.5625 C-23.06877013 32.11711896 -23.06877013 32.11711896 -20 31 C-20 30.34 -20 29.68 -20 29 C-16.7 28.01 -13.4 27.02 -10 26 C-9.67 18.08 -9.34 10.16 -9 2 C-2 0 -2 0 0 0 Z " fill="#2E3047" transform="translate(103,56)"/>
<path d="M0 0 C0.33 0 0.66 0 1 0 C1 16.17 1 32.34 1 49 C4.63 48.34 8.26 47.68 12 47 C12 44.03 12 41.06 12 38 C20.03571429 34.65178571 20.03571429 34.65178571 24 36 C20.3558226 38.4294516 18.28758728 38.16179575 14 38 C14.05220703 38.92232422 14.05220703 38.92232422 14.10546875 39.86328125 C14.13253906 40.67152344 14.15960938 41.47976562 14.1875 42.3125 C14.23970703 43.51326172 14.23970703 43.51326172 14.29296875 44.73828125 C13.93326052 47.51522878 13.07948025 48.21384694 11 50 C10.67 50.66 10.34 51.32 10 52 C8.33333333 53.66666667 6.66666667 55.33333333 5 57 C5.66 57.66 6.32 58.32 7 59 C4.75376301 59.69969682 2.50283586 60.38435043 0.25 61.0625 C-1.62945312 61.63677734 -1.62945312 61.63677734 -3.546875 62.22265625 C-6.6738008 62.92656828 -8.09466046 63.16653785 -11 62 C-10.01 61.505 -10.01 61.505 -9 61 C-9 47.14 -9 33.28 -9 19 C-4.545 18.01 -4.545 18.01 0 17 C0 11.39 0 5.78 0 0 Z " fill="#424561" transform="translate(59,51)"/>
<path d="M0 0 C0 13.53 0 27.06 0 41 C-1.98 41.495 -1.98 41.495 -4 42 C-3.67 41.34 -3.34 40.68 -3 40 C-2.34 40 -1.68 40 -1 40 C-1 37.69 -1 35.38 -1 33 C-2.32 33 -3.64 33 -5 33 C-5 34.65 -5 36.3 -5 38 C-6.485 38.495 -6.485 38.495 -8 39 C-8 38.01 -8 37.02 -8 36 C-8.65226562 36.144375 -9.30453125 36.28875 -9.9765625 36.4375 C-22.01242236 38.99378882 -22.01242236 38.99378882 -26 37 C-26.48828125 31.04296875 -26.48828125 31.04296875 -26 29 C-22.1898232 25.81537461 -19.0350425 25.66560477 -14.1875 25.8125 C-12.44533203 25.85310547 -12.44533203 25.85310547 -10.66796875 25.89453125 C-9.78753906 25.92933594 -8.90710938 25.96414062 -8 26 C-8 25.34 -8 24.68 -8 24 C-6.02 24.33 -4.04 24.66 -2 25 C-2.33 22.69 -2.66 20.38 -3 18 C-3.66 18 -4.32 18 -5 18 C-4.67 15.03 -4.34 12.06 -4 9 C-4.61488281 9.28875 -5.22976562 9.5775 -5.86328125 9.875 C-6.67152344 10.24625 -7.47976562 10.6175 -8.3125 11 C-9.11300781 11.37125 -9.91351563 11.7425 -10.73828125 12.125 C-13 13 -13 13 -16 13 C-13.71584679 10.82529395 -11.42149089 8.66166755 -9.125 6.5 C-8.47402344 5.87996094 -7.82304688 5.25992188 -7.15234375 4.62109375 C-6.52714844 4.03457031 -5.90195313 3.44804688 -5.2578125 2.84375 C-4.6817627 2.29912109 -4.10571289 1.75449219 -3.51220703 1.19335938 C-2 0 -2 0 0 0 Z " fill="#1385FA" transform="translate(94,41)"/>
<path d="M0 0 C7 1 7 1 10 3 C10 3.66 10 4.32 10 5 C12.31 5 14.62 5 17 5 C16.4225 5.268125 15.845 5.53625 15.25 5.8125 C12.94603902 6.94184834 12.94603902 6.94184834 10.9375 8.625 C9 10 9 10 6 10 C6 11.65 6 13.3 6 15 C5.34 15 4.68 15 4 15 C4 15.66 4 16.32 4 17 C4.66 17 5.32 17 6 17 C6.125 24.75 6.125 24.75 5 27 C5.17295995 29.53176909 5.17295995 29.53176909 6 32 C6.99 32.66 7.98 33.32 9 34 C9.3984375 36.05859375 9.3984375 36.05859375 9.375 38.4375 C9.38273437 39.21996094 9.39046875 40.00242188 9.3984375 40.80859375 C9 43 9 43 7.8515625 44.78515625 C6 46 6 46 0 46 C0 30.82 0 15.64 0 0 Z " fill="#03ABFD" transform="translate(61,52)"/>
<path d="M0 0 C3.375 -0.1875 3.375 -0.1875 7 0 C7.66 0.99 8.32 1.98 9 3 C8.67 3.66 8.34 4.32 8 5 C8.99 5 9.98 5 11 5 C11 5.99 11 6.98 11 8 C10.01 8.66 9.02 9.32 8 10 C8 11.32 8 12.64 8 14 C10.31 14 12.62 14 15 14 C11.69214225 16.2052385 8.53628252 17.1247101 4.75 18.125 C4.10675781 18.30675781 3.46351562 18.48851563 2.80078125 18.67578125 C-1.55797141 19.84220802 -5.50039751 20.17485502 -10 20 C-10 19.01 -10 18.02 -10 17 C-8.68 16.34 -7.36 15.68 -6 15 C-6.33 14.34 -6.66 13.68 -7 13 C-6.01 12.67 -5.02 12.34 -4 12 C-1.84362154 10.3353373 -1.09499565 9.41986625 -0.48828125 6.73828125 C-0.43027344 5.93777344 -0.37226562 5.13726562 -0.3125 4.3125 C-0.24675781 3.50425781 -0.18101563 2.69601563 -0.11328125 1.86328125 C-0.07589844 1.24839844 -0.03851563 0.63351563 0 0 Z " fill="#37374C" transform="translate(73,89)"/>
<path d="M0 0 C0 2.64 0 5.28 0 8 C0.66 8.33 1.32 8.66 2 9 C2 11.31 2 13.62 2 16 C-0.97 15.505 -0.97 15.505 -4 15 C-4 15.66 -4 16.32 -4 17 C-4.89203125 17.06058594 -5.7840625 17.12117188 -6.703125 17.18359375 C-8.45882812 17.30927734 -8.45882812 17.30927734 -10.25 17.4375 C-11.41015625 17.51871094 -12.5703125 17.59992188 -13.765625 17.68359375 C-16.30977376 17.93247787 -18.55953248 18.28114942 -21 19 C-21.33 18.01 -21.66 17.02 -22 16 C-21.01 15.67 -20.02 15.34 -19 15 C-19 14.01 -19 13.02 -19 12 C-15.7 11.34 -12.4 10.68 -9 10 C-8.9071875 8.3603125 -8.9071875 8.3603125 -8.8125 6.6875 C-8 3 -8 3 -5.625 1.0625 C-3 0 -3 0 0 0 Z " fill="#0490FC" transform="translate(90,50)"/>
<path d="M0 0 C2.97 0.33 5.94 0.66 9 1 C9 24.76 9 48.52 9 73 C7.68 72.67 6.36 72.34 5 72 C5.495 71.505 5.495 71.505 6 71 C6.1603556 67.97192956 6.25960448 64.96414546 6.31640625 61.93359375 C6.33718735 61.02497086 6.35796844 60.11634796 6.37937927 59.18019104 C6.44497672 56.26604054 6.5038068 53.35179696 6.5625 50.4375 C6.60567554 48.46678709 6.64928951 46.49608374 6.69335938 44.52539062 C6.80066843 39.68369012 6.90190675 34.84189563 7 30 C4.03 30.66 1.06 31.32 -2 32 C-1 30 -1 30 1.375 28.875 C4 28 4 28 7 28 C6.67 20.08 6.34 12.16 6 4 C3.69 4 1.38 4 -1 4 C-0.67 2.68 -0.34 1.36 0 0 Z " fill="#4E4D5A" transform="translate(96,26)"/>
<path d="M0 0 C-3.6441774 2.4294516 -5.71241272 2.16179575 -10 2 C-9.94779297 2.92232422 -9.94779297 2.92232422 -9.89453125 3.86328125 C-9.86746094 4.67152344 -9.84039062 5.47976562 -9.8125 6.3125 C-9.76029297 7.51326172 -9.76029297 7.51326172 -9.70703125 8.73828125 C-10.06673948 11.51522878 -10.92051975 12.21384694 -13 14 C-13.33 14.66 -13.66 15.32 -14 16 C-16.5 18.5 -16.5 18.5 -19 21 C-18.34 21.66 -17.68 22.32 -17 23 C-21.53701494 24.45184478 -25.18061476 25.23509196 -30 25 C-30 23.68 -30 22.36 -30 21 C-28.68 21 -27.36 21 -26 21 C-25.66781808 17.99740483 -25.66781808 17.99740483 -27.5 16.3125 C-28.2425 15.6628125 -28.2425 15.6628125 -29 15 C-28.34 13.35 -27.68 11.7 -27 10 C-26.45859375 10.33773437 -25.9171875 10.67546875 -25.359375 11.0234375 C-22.38940883 12.25272813 -20.42367191 12.00281808 -17.25 11.625 C-16.26515625 11.51414062 -15.2803125 11.40328125 -14.265625 11.2890625 C-13.51796875 11.19367188 -12.7703125 11.09828125 -12 11 C-12 8.03 -12 5.06 -12 2 C-3.96428571 -1.34821429 -3.96428571 -1.34821429 0 0 Z " fill="#3C3C52" transform="translate(83,87)"/>
<path d="M0 0 C0 2.31 0 4.62 0 7 C-1.76949612 7.50471197 -3.54065223 8.00360685 -5.3125 8.5 C-6.29863281 8.7784375 -7.28476563 9.056875 -8.30078125 9.34375 C-11 10 -11 10 -14 10 C-14 7.69 -14 5.38 -14 3 C-4.58997722 -0.44419134 -4.58997722 -0.44419134 0 0 Z " fill="#2F4266" transform="translate(84,68)"/>
<path d="M0 0 C-0.66 0 -1.32 0 -2 0 C-2 1.32 -2 2.64 -2 4 C-1.34 4.33 -0.68 4.66 0 5 C-4.75 4.125 -4.75 4.125 -7 3 C-7.33 26.1 -7.66 49.2 -8 73 C-8.33 73 -8.66 73 -9 73 C-9 49.24 -9 25.48 -9 1 C-3.375 -1.25 -3.375 -1.25 0 0 Z " fill="#777488" transform="translate(23,23)"/>
<path d="M0 0 C1.32 0 2.64 0 4 0 C4.1875 3.375 4.1875 3.375 4 7 C1 9 1 9 -2.125 9.4375 C-6.05905544 10.00857256 -9.37969235 11.08738887 -13.08203125 12.4765625 C-15 13 -15 13 -17 12 C-15.35 11.67 -13.7 11.34 -12 11 C-11.67 10.01 -11.34 9.02 -11 8 C-10.01 8 -9.02 8 -8 8 C-7.67 6.35 -7.34 4.7 -7 3 C-5.35 2.67 -3.7 2.34 -2 2 C-2 2.99 -2 3.98 -2 5 C-1.34 5 -0.68 5 0 5 C-0.33 4.01 -0.66 3.02 -1 2 C-0.67 1.34 -0.34 0.68 0 0 Z " fill="#078DFA" transform="translate(89,74)"/>
<path d="M0 0 C1.32 0 2.64 0 4 0 C4 0.66 4 1.32 4 2 C5.32 2 6.64 2 8 2 C8 3.32 8 4.64 8 6 C6.68 6 5.36 6 4 6 C4 7.65 4 9.3 4 11 C3.01 11.33 2.02 11.66 1 12 C1 11.01 1 10.02 1 9 C0.34773438 9.144375 -0.30453125 9.28875 -0.9765625 9.4375 C-5.72620177 10.44627294 -10.11409188 11.25715306 -15 11 C-12.3851183 9.25674553 -10.9946567 8.58412043 -8.0625 7.875 C-7.39347656 7.70742187 -6.72445312 7.53984375 -6.03515625 7.3671875 C-4 7 -4 7 0 7 C0 4.69 0 2.38 0 0 Z " fill="#2088F0" transform="translate(85,68)"/>
<path d="M0 0 C0 13.53 0 27.06 0 41 C-1.98 41.495 -1.98 41.495 -4 42 C-3.67 41.34 -3.34 40.68 -3 40 C-2.34 40 -1.68 40 -1 40 C-1.33 27.79 -1.66 15.58 -2 3 C-3.98 5.31 -5.96 7.62 -8 10 C-11.375 12.4375 -11.375 12.4375 -14 14 C-14.66 13.67 -15.32 13.34 -16 13 C-13.71584679 10.82529395 -11.42149089 8.66166755 -9.125 6.5 C-8.47402344 5.87996094 -7.82304688 5.25992188 -7.15234375 4.62109375 C-6.21455078 3.74130859 -6.21455078 3.74130859 -5.2578125 2.84375 C-4.6817627 2.29912109 -4.10571289 1.75449219 -3.51220703 1.19335938 C-2 0 -2 0 0 0 Z " fill="#2E70C9" transform="translate(94,41)"/>
<path d="M0 0 C0.66 0 1.32 0 2 0 C2.33 2.64 2.66 5.28 3 8 C3.99 8.33 4.98 8.66 6 9 C5.67 9.99 5.34 10.98 5 12 C3.68 12 2.36 12 1 12 C1 13.32 1 14.64 1 16 C1.66 16.33 2.32 16.66 3 17 C1.02 17.33 -0.96 17.66 -3 18 C-3.33 17.34 -3.66 16.68 -4 16 C-3.34 16 -2.68 16 -2 16 C-2 14.68 -2 13.36 -2 12 C-1.34 12 -0.68 12 0 12 C0 8.04 0 4.08 0 0 Z " fill="#453D58" transform="translate(52,96)"/>
<path d="M0 0 C4.00604133 1.00151033 7.18205795 2.5824882 10.75 4.5625 C11.65298828 5.0565332 11.65298828 5.0565332 12.57421875 5.56054688 C14.05170503 6.3696465 15.52616036 7.18427662 17 8 C16.01 8.495 16.01 8.495 15 9 C13.265625 8.22265625 13.265625 8.22265625 11.25 7.0625 C7.66972416 5.16129513 5.11059556 4.58894044 1 5 C1.66 6.65 2.32 8.3 3 10 C2.67 10.33 2.34 10.66 2 11 C1.76572222 13.01594582 1.58663876 15.038474 1.4375 17.0625 C1.35371094 18.16722656 1.26992188 19.27195312 1.18359375 20.41015625 C1.12300781 21.26480469 1.06242187 22.11945313 1 23 C0.67 23 0.34 23 0 23 C0 15.41 0 7.82 0 0 Z " fill="#44415B" transform="translate(15,53)"/>
<path d="M0 0 C1 2 1 2 0 7 C-3.3 7.66 -6.6 8.32 -10 9 C-10 9.99 -10 10.98 -10 12 C-11.32 12 -12.64 12 -14 12 C-14 11.01 -14 10.02 -14 9 C-11.69 7.68 -9.38 6.36 -7 5 C-7.99 4.67 -8.98 4.34 -10 4 C-9.67 3.34 -9.34 2.68 -9 2 C-7.6078125 2.061875 -7.6078125 2.061875 -6.1875 2.125 C-2.84190281 2.27136339 -2.84190281 2.27136339 0 0 Z " fill="#219CF9" transform="translate(81,53)"/>
<path d="M0 0 C-3.6441774 2.4294516 -5.71241272 2.16179575 -10 2 C-9.95359375 2.61488281 -9.9071875 3.22976562 -9.859375 3.86328125 C-9.56832845 10.38064516 -9.56832845 10.38064516 -11.4375 13.0625 C-15.27344153 14.46589324 -18.96070821 14.23303606 -23 14 C-19.36383344 12.0210244 -16.11574371 11.4748935 -12 11 C-12 8.03 -12 5.06 -12 2 C-3.96428571 -1.34821429 -3.96428571 -1.34821429 0 0 Z " fill="#204671" transform="translate(83,87)"/>
<path d="M0 0 C1.00160156 0.0721875 2.00320312 0.144375 3.03515625 0.21875 C4.3775953 0.31262686 5.72004373 0.40636969 7.0625 0.5 C9.02896484 0.63921875 9.02896484 0.63921875 11.03515625 0.78125 C14.70075995 0.9834902 18.32990952 1.0381804 22 1 C20.68 2.65 19.36 4.3 18 6 C13.68068613 5.38388165 9.74791225 4.35761422 5.625 2.9375 C4.56539063 2.57527344 3.50578125 2.21304688 2.4140625 1.83984375 C1.61742187 1.56269531 0.82078125 1.28554688 0 1 C0 0.67 0 0.34 0 0 Z " fill="#2D4066" transform="translate(60,49)"/>
<path d="M0 0 C1.32 0 2.64 0 4 0 C4.1875 3.375 4.1875 3.375 4 7 C0.5647952 9.29013653 -0.985331 9.17842973 -5 9 C-3.625 7 -3.625 7 -2 5 C-1.34 5 -0.68 5 0 5 C-0.33 4.01 -0.66 3.02 -1 2 C-0.67 1.34 -0.34 0.68 0 0 Z " fill="#0887F9" transform="translate(89,74)"/>
<path d="M0 0 C1.32 0 2.64 0 4 0 C4 2.31 4 4.62 4 7 C0.7 7 -2.6 7 -6 7 C-4.68 6.67 -3.36 6.34 -2 6 C-2 5.34 -2 4.68 -2 4 C-2.66 3.67 -3.32 3.34 -4 3 C-3.01 2.67 -2.02 2.34 -1 2 C-0.67 1.34 -0.34 0.68 0 0 Z " fill="#2A3453" transform="translate(80,68)"/>
<path d="M0 0 C-0.66 0 -1.32 0 -2 0 C-2 1.32 -2 2.64 -2 4 C-1.34 4.33 -0.68 4.66 0 5 C-4.75 4.125 -4.75 4.125 -7 3 C-7.33 7.62 -7.66 12.24 -8 17 C-8.33 17 -8.66 17 -9 17 C-9 11.72 -9 6.44 -9 1 C-3.375 -1.25 -3.375 -1.25 0 0 Z " fill="#8B88A0" transform="translate(23,23)"/>
<path d="M0 0 C0.33 1.32 0.66 2.64 1 4 C0.195625 4.28875 -0.60875 4.5775 -1.4375 4.875 C-4.1326468 5.73262568 -4.1326468 5.73262568 -5 8 C-6.32 7.67 -7.64 7.34 -9 7 C-8.67 5.35 -8.34 3.7 -8 2 C-2.25 0 -2.25 0 0 0 Z " fill="#0297FE" transform="translate(82,77)"/>
<path d="M0 0 C-3.68734758 2.45823172 -6.69699971 3.01242616 -11 4 C-11.33 6.31 -11.66 8.62 -12 11 C-12.66 11 -13.32 11 -14 11 C-14.2339498 8.14581246 -14.41921004 5.79657225 -14 3 C-10.14729983 -0.97698082 -5.16717142 -0.30395126 0 0 Z " fill="#378EDA" transform="translate(82,67)"/>
<path d="M0 0 C0 5.61 0 11.22 0 17 C-0.33 17 -0.66 17 -1 17 C-1 11.72 -1 6.44 -1 1 C-3.64 2.98 -6.28 4.96 -9 7 C-9 6.01 -9 5.02 -9 4 C-8.34 3.67 -7.68 3.34 -7 3 C-6.67 2.01 -6.34 1.02 -6 0 C-3 -1 -3 -1 0 0 Z " fill="#223665" transform="translate(95,40)"/>
<path d="M0 0 C5.625 -0.25 5.625 -0.25 9 2 C9.1875 5.125 9.1875 5.125 9 8 C6.5625 7.1875 6.5625 7.1875 4 6 C3.67 5.01 3.34 4.02 3 3 C2.01 2.67 1.02 2.34 0 2 C0 1.34 0 0.68 0 0 Z " fill="#221F31" transform="translate(40,104)"/>
<path d="M0 0 C2.97 0.495 2.97 0.495 6 1 C6.33 2.32 6.66 3.64 7 5 C5.68 5 4.36 5 3 5 C3 4.34 3 3.68 3 3 C1.68 3 0.36 3 -1 3 C-1 5.31 -1 7.62 -1 10 C-1.33 10 -1.66 10 -2 10 C-2 7.69 -2 5.38 -2 3 C-2.66 2.67 -3.32 2.34 -4 2 C-2.68 2 -1.36 2 0 2 C0 1.34 0 0.68 0 0 Z " fill="#0B7BE4" transform="translate(86,65)"/>
<path d="M0 0 C0 0.66 0 1.32 0 2 C-0.99 2 -1.98 2 -3 2 C-3.33 3.32 -3.66 4.64 -4 6 C-5.98 6.33 -7.96 6.66 -10 7 C-10 6.01 -10 5.02 -10 4 C-9.01 3.67 -8.02 3.34 -7 3 C-6.67 2.34 -6.34 1.68 -6 1 C-3 0 -3 0 0 0 Z " fill="#32354D" transform="translate(92,38)"/>
<path d="M0 0 C1.33332095 2.6666419 0.67102033 4.16680303 0 7 C-1.65 7.33 -3.3 7.66 -5 8 C-4.34 7.67 -3.68 7.34 -3 7 C-3 6.01 -3 5.02 -3 4 C-5.31 4 -7.62 4 -10 4 C-9.67 3.34 -9.34 2.68 -9 2 C-7.6078125 2.061875 -7.6078125 2.061875 -6.1875 2.125 C-2.84190281 2.27136339 -2.84190281 2.27136339 0 0 Z " fill="#1995FB" transform="translate(81,53)"/>
<path d="M0 0 C2.475 0.495 2.475 0.495 5 1 C5 2.65 5 4.3 5 6 C3.35 6 1.7 6 0 6 C0 4.02 0 2.04 0 0 Z " fill="#19ACFB" transform="translate(61,52)"/>
<path d="M0 0 C-0.33 0.66 -0.66 1.32 -1 2 C-3.06640625 2.4140625 -3.06640625 2.4140625 -5.5625 2.625 C-6.38878906 2.69976562 -7.21507813 2.77453125 -8.06640625 2.8515625 C-9.02353516 2.92503906 -9.02353516 2.92503906 -10 3 C-9.67 2.01 -9.34 1.02 -9 0 C-5.52176885 -1.15941038 -3.54104422 -0.70820884 0 0 Z " fill="#31323B" transform="translate(100,99)"/>
<path d="M0 0 C0.125 3.375 0.125 3.375 0 7 C-0.66 7.66 -1.32 8.32 -2 9 C-1.67 7.02 -1.34 5.04 -1 3 C-2.32 3.33 -3.64 3.66 -5 4 C-5.33 3.01 -5.66 2.02 -6 1 C-4 0 -4 0 0 0 Z " fill="#1FA3F9" transform="translate(70,88)"/>
<path d="M0 0 C0.33 0 0.66 0 1 0 C1 1.98 1 3.96 1 6 C1.66 6.33 2.32 6.66 3 7 C1.02 7.33 -0.96 7.66 -3 8 C-3.33 7.34 -3.66 6.68 -4 6 C-3.34 6 -2.68 6 -2 6 C-2 4.68 -2 3.36 -2 2 C-1.34 2 -0.68 2 0 2 C0 1.34 0 0.68 0 0 Z " fill="#474955" transform="translate(52,106)"/>
<path d="M0 0 C0.66 0.33 1.32 0.66 2 1 C-0.85276137 3.93200474 -3.65079784 6.64315404 -7 9 C-7.66 8.67 -8.32 8.34 -9 8 C-6.03 5.36 -3.06 2.72 0 0 Z " fill="#377ED9" transform="translate(87,46)"/>
<path d="M0 0 C0 0.99 0 1.98 0 3 C-0.94875 3.309375 -1.8975 3.61875 -2.875 3.9375 C-5.86080408 4.87394742 -5.86080408 4.87394742 -8 6 C-8 5.34 -8 4.68 -8 4 C-8.66 3.67 -9.32 3.34 -10 3 C-5.05 1.515 -5.05 1.515 0 0 Z " fill="#203866" transform="translate(93,82)"/>
<path d="M0 0 C1.32 0.33 2.64 0.66 4 1 C3.67 1.66 3.34 2.32 3 3 C0.93359375 3.6328125 0.93359375 3.6328125 -1.5625 4.125 C-2.38878906 4.29257813 -3.21507813 4.46015625 -4.06640625 4.6328125 C-4.70449219 4.75398438 -5.34257813 4.87515625 -6 5 C-5.67 4.34 -5.34 3.68 -5 3 C-3.68 3 -2.36 3 -1 3 C-0.67 2.01 -0.34 1.02 0 0 Z " fill="#2093FB" transform="translate(78,82)"/>
<path d="M0 0 C-3.08559304 2.26881841 -4.42209376 3.05451946 -8.3125 2.6875 C-9.199375 2.460625 -10.08625 2.23375 -11 2 C-7.00042393 -0.06874624 -4.43559483 -1.37656391 0 0 Z " fill="#8B899D" transform="translate(41,18)"/>
<path d="M0 0 C0 1.65 0 3.3 0 5 C-1.32 5 -2.64 5 -4 5 C-4 4.34 -4 3.68 -4 3 C-4.99 2.34 -5.98 1.68 -7 1 C-4.50935112 0.31292445 -2.62113708 0 0 0 Z " fill="#707088" transform="translate(48,15)"/>
<path d="M0 0 C1.98 0.99 3.96 1.98 6 3 C6 3.33 6 3.66 6 4 C3.36 4 0.72 4 -2 4 C-1.34 2.68 -0.68 1.36 0 0 Z " fill="#28283B" transform="translate(83,99)"/>
<path d="M0 0 C2.31 0.33 4.62 0.66 7 1 C6.67 1.99 6.34 2.98 6 4 C3.69 4 1.38 4 -1 4 C-0.67 2.68 -0.34 1.36 0 0 Z " fill="#2A2A3D" transform="translate(96,26)"/>
<path d="M0 0 C2.31 0 4.62 0 7 0 C6.01 1.485 6.01 1.485 5 3 C2.375 3.1875 2.375 3.1875 0 3 C0 2.01 0 1.02 0 0 Z " fill="#2C2A35" transform="translate(63,106)"/>
<path d="M0 0 C3.96 1.98 3.96 1.98 8 4 C6.68 4.33 5.36 4.66 4 5 C1.25 3.0625 1.25 3.0625 -1 1 C-0.67 0.67 -0.34 0.34 0 0 Z " fill="#646080" transform="translate(23,27)"/>
<path d="" fill="#FFFFFF" transform="translate(0,0)"/>
<path d="" fill="#FFFFFF" transform="translate(0,0)"/>
<path d="" fill="#FFFFFE" transform="translate(0,0)"/>
<path d="" fill="#FFFFFF" transform="translate(0,0)"/>
<path d="" fill="#FFFFFF" transform="translate(0,0)"/>
<path d="" fill="#FFFFFF" transform="translate(0,0)"/>
<path d="" fill="#FFFFFF" transform="translate(0,0)"/>
<path d="" fill="#FFFFFF" transform="translate(0,0)"/>
<path d="" fill="#FFFFFF" transform="translate(0,0)"/>
<path d="" fill="#FFFFFF" transform="translate(0,0)"/>
<path d="" fill="#FFFFFF" transform="translate(0,0)"/>
<path d="" fill="#FFFFFF" transform="translate(0,0)"/>
<path d="" fill="#FFFFFF" transform="translate(0,0)"/>
<path d="" fill="#FFFFFF" transform="translate(0,0)"/>
<path d="" fill="#FFFFFF" transform="translate(0,0)"/>
<path d="" fill="#FFFFFF" transform="translate(0,0)"/>
<path d="" fill="#FFFFFF" transform="translate(0,0)"/>
<path d="" fill="#FFFF00" transform="translate(0,0)"/>
<path d="" fill="#FFFFFF" transform="translate(0,0)"/>
<path d="" fill="#FFFFFF" transform="translate(0,0)"/>
<path d="" fill="#FFFFFF" transform="translate(0,0)"/>
<path d="" fill="#FFFFFF" transform="translate(0,0)"/>
<path d="" fill="#FFFFFF" transform="translate(0,0)"/>
<path d="" fill="#FFFFFF" transform="translate(0,0)"/>
<path d="" fill="#FFFFFF" transform="translate(0,0)"/>
<path d="" fill="#FFFFFF" transform="translate(0,0)"/>
<path d="" fill="#FFFFFF" transform="translate(0,0)"/>
</svg>
